<?xml version="1.0" standalone="no"?>
<!DOCTYPE svg PUBLIC "-//W3C//DTD SVG 20010904//EN"
 "http://www.w3.org/TR/2001/REC-SVG-20010904/DTD/svg10.dtd">
<svg version="1.0" xmlns="http://www.w3.org/2000/svg"
 width="185.000000pt" height="188.000000pt" viewBox="0 0 185.000000 188.000000"
 preserveAspectRatio="xMidYMid meet">
<metadata>
Created by potrace 1.16, written by Peter Selinger 2001-2019
</metadata>
<g transform="translate(0.000000,188.000000) scale(0.100000,-0.100000)"
fill="#000000" stroke="none">
<path d="M610 1765 c0 -8 -7 -15 -15 -15 -13 0 -15 -93 -15 -780 0 -687 2
-780 15 -780 8 0 15 -7 15 -15 0 -11 12 -15 45 -15 33 0 45 4 45 15 0 8 7 15
15 15 13 0 15 93 15 780 0 687 -2 780 -15 780 -8 0 -15 7 -15 15 0 11 -12 15
-45 15 -33 0 -45 -4 -45 -15z"/>
<path d="M1120 1765 c0 -8 -7 -15 -15 -15 -13 0 -15 -93 -15 -780 0 -687 2
-780 15 -780 8 0 15 -7 15 -15 0 -11 12 -15 45 -15 33 0 45 4 45 15 0 8 7 15
15 15 13 0 15 93 15 780 0 687 -2 780 -15 780 -8 0 -15 7 -15 15 0 11 -12 15
-45 15 -33 0 -45 -4 -45 -15z"/>
</g>
</svg>
