<?xml version="1.0" standalone="no"?>
<!DOCTYPE svg PUBLIC "-//W3C//DTD SVG 20010904//EN"
 "http://www.w3.org/TR/2001/REC-SVG-20010904/DTD/svg10.dtd">
<svg version="1.0" xmlns="http://www.w3.org/2000/svg"
 width="930.000000pt" height="769.000000pt" viewBox="0 0 930.000000 769.000000"
 preserveAspectRatio="xMidYMid meet">
<metadata>
Created by potrace 1.16, written by Peter Selinger 2001-2019
</metadata>
<g transform="translate(0.000000,769.000000) scale(0.100000,-0.100000)"
fill="#000000" stroke="none">
<path d="M4414 7636 c-28 -21 0 -30 85 -28 78 2 141 17 141 32 0 14 -206 10
-226 -4z"/>
<path d="M4140 7625 c-22 -12 -23 -14 -7 -20 17 -7 47 10 47 26 0 12 -11 11
-40 -6z"/>
<path d="M4208 7633 c7 -3 16 -2 19 1 4 3 -2 6 -13 5 -11 0 -14 -3 -6 -6z"/>
<path d="M4258 7633 c7 -3 16 -2 19 1 4 3 -2 6 -13 5 -11 0 -14 -3 -6 -6z"/>
<path d="M3900 7580 c0 -5 7 -10 15 -10 8 0 15 5 15 10 0 6 -7 10 -15 10 -8 0
-15 -4 -15 -10z"/>
<path d="M3860 7550 c-8 -5 -35 -10 -60 -10 -47 0 -95 -24 -84 -41 3 -6 41 -9
85 -8 44 1 82 -1 86 -5 22 -22 32 19 13 55 -12 21 -18 23 -40 9z"/>
<path d="M3537 7456 c-29 -25 -27 -37 3 -29 11 3 17 10 14 15 -4 6 0 14 7 19
7 4 11 10 8 13 -3 3 -17 -5 -32 -18z"/>
<path d="M5328 7463 c6 -2 18 -2 25 0 6 3 1 5 -13 5 -14 0 -19 -2 -12 -5z"/>
<path d="M4032 7430 c-8 -13 -23 -20 -44 -20 -17 0 -29 -3 -25 -6 3 -3 22 -6
42 -6 39 0 72 22 61 41 -10 16 -20 14 -34 -9z"/>
<path d="M4090 7440 c0 -5 6 -10 14 -10 8 0 18 5 21 10 3 6 -3 10 -14 10 -12
0 -21 -4 -21 -10z"/>
<path d="M4450 7440 c0 -5 5 -10 10 -10 6 0 10 5 10 10 0 6 -4 10 -10 10 -5 0
-10 -4 -10 -10z"/>
<path d="M4495 7430 c3 -5 12 -7 20 -3 21 7 19 13 -6 13 -11 0 -18 -4 -14 -10z"/>
<path d="M3725 7411 c-3 -5 -1 -12 5 -16 12 -7 30 2 30 16 0 12 -27 12 -35 0z"/>
<path d="M3460 7395 c0 -9 9 -15 21 -15 18 0 19 2 9 15 -7 8 -16 15 -21 15 -5
0 -9 -7 -9 -15z"/>
<path d="M3324 7382 c-6 -4 -14 -17 -18 -29 -4 -13 -13 -23 -21 -23 -19 0 -26
-38 -8 -44 54 -21 181 44 171 86 -3 13 -10 14 -51 3 -39 -10 -49 -10 -55 1 -4
7 -12 10 -18 6z"/>
<path d="M688 7369 c-10 -5 -18 -15 -18 -21 0 -12 -47 -58 -60 -58 -4 0 -13
-26 -18 -57 -10 -56 -10 -59 16 -82 24 -21 25 -24 9 -36 -20 -15 -23 -45 -3
-45 18 0 33 -108 25 -187 -1 -10 6 -52 16 -93 20 -84 21 -101 10 -147 -7 -31
-6 -33 20 -33 30 0 107 36 145 68 14 12 38 32 53 44 l29 23 -17 120 c-20 147
-27 192 -55 320 -28 132 -27 129 -60 164 -29 32 -61 39 -92 20z"/>
<path d="M3211 7321 c-10 -10 -20 -22 -22 -27 -9 -21 -99 -72 -117 -67 -12 3
-25 -2 -33 -15 -8 -10 -27 -26 -44 -35 -16 -8 -46 -31 -65 -51 -19 -19 -38
-36 -42 -36 -9 0 -50 -37 -178 -159 -49 -46 -100 -91 -114 -100 -65 -43 -207
-193 -271 -287 -26 -38 -60 -84 -76 -102 -16 -18 -29 -38 -29 -46 0 -7 -13
-30 -30 -52 -16 -21 -30 -44 -30 -51 0 -6 -9 -22 -19 -35 -11 -12 -34 -39 -50
-59 -34 -40 -39 -70 -17 -89 19 -15 4 -52 -27 -66 -12 -5 -21 -17 -21 -27 1
-9 -2 -17 -7 -17 -5 0 -9 -6 -9 -12 0 -16 -60 -58 -82 -58 -9 0 -18 -9 -21
-20 -6 -22 -41 -27 -67 -10 -10 6 -21 3 -37 -12 -19 -17 -25 -19 -38 -8 -8 7
-24 10 -36 7 -14 -4 -28 2 -44 19 -27 29 -45 31 -45 3 0 -11 -5 -29 -10 -39
-8 -15 -6 -21 7 -29 17 -10 17 -10 1 -11 -10 0 -18 4 -18 9 0 12 -39 21 -46
10 -3 -5 -11 -9 -17 -9 -7 0 -6 4 3 10 9 6 10 10 3 10 -7 0 -27 13 -46 30 -23
20 -40 27 -55 23 -26 -6 -82 47 -82 79 0 15 -5 18 -16 14 -19 -7 -47 12 -38
25 3 5 -8 17 -25 27 -17 9 -31 25 -31 34 0 10 -9 23 -20 30 -11 7 -20 16 -20
21 0 4 -7 19 -16 32 -13 20 -20 23 -35 14 -16 -8 -21 -5 -30 18 -6 15 -11 44
-12 64 -1 31 -6 38 -33 48 -17 6 -39 9 -48 5 -9 -3 -23 -3 -33 0 -15 6 -14 8
2 20 16 12 17 17 6 45 -8 17 -17 31 -22 31 -17 0 -79 72 -79 91 0 12 -7 19
-19 19 -27 0 -34 -15 -16 -33 17 -17 20 -37 6 -37 -6 0 -13 5 -17 11 -3 6 -25
19 -48 30 -22 11 -52 26 -65 33 -26 15 -64 5 -102 -27 -29 -25 -318 -38 -374
-17 -14 5 -26 5 -34 -3 -8 -8 -23 -3 -56 21 -25 18 -54 32 -65 32 -11 0 -20 5
-20 10 0 6 8 10 18 10 11 0 6 7 -16 22 -19 11 -38 32 -43 44 -4 13 -13 24 -19
24 -16 0 -12 -68 6 -106 22 -46 108 -122 164 -146 25 -11 61 -27 80 -37 38
-20 130 -48 255 -79 282 -70 429 -129 587 -237 115 -79 133 -95 227 -210 73
-91 91 -114 91 -120 0 -3 14 -27 32 -53 37 -53 67 -156 68 -227 0 -62 -29
-165 -64 -225 -14 -25 -26 -51 -26 -59 0 -7 -11 -26 -25 -43 -14 -16 -25 -36
-25 -44 0 -8 -11 -32 -25 -52 -14 -20 -25 -43 -25 -50 0 -7 -9 -33 -21 -58
-23 -51 -64 -166 -84 -234 -7 -25 -20 -61 -29 -81 -8 -21 -23 -72 -32 -115 -8
-43 -22 -90 -29 -104 -7 -14 -18 -55 -25 -90 -6 -36 -20 -92 -30 -125 -37
-115 -70 -281 -79 -395 -5 -63 -17 -141 -25 -173 -25 -92 -37 -216 -43 -474
-5 -198 -3 -256 9 -315 29 -138 61 -303 68 -358 4 -30 19 -78 34 -106 14 -29
26 -57 26 -63 0 -19 69 -142 109 -196 21 -27 62 -76 91 -108 29 -32 64 -73 79
-92 68 -88 195 -245 235 -290 25 -27 58 -69 75 -92 16 -23 36 -45 43 -50 8 -4
46 -46 85 -93 91 -109 213 -233 283 -289 30 -23 99 -84 154 -134 54 -50 128
-110 165 -134 36 -23 93 -63 126 -88 135 -105 207 -148 435 -261 143 -71 476
-187 645 -225 28 -6 70 -17 95 -25 189 -57 250 -74 272 -74 13 0 81 -12 149
-26 121 -26 133 -26 579 -29 250 -2 511 -6 580 -10 116 -6 132 -4 225 20 55
15 132 33 170 40 82 16 87 17 185 60 41 18 122 52 180 76 99 41 206 103 330
190 30 21 84 54 121 73 36 19 85 52 110 73 24 21 64 55 89 74 60 49 300 285
300 297 0 8 56 77 124 152 13 14 34 43 48 65 14 22 39 54 55 70 16 17 44 50
60 75 17 25 45 59 63 75 31 29 80 116 80 141 0 7 -8 12 -17 12 -10 -1 -35 2
-55 6 -31 6 -38 4 -38 -9 0 -8 -4 -15 -10 -15 -5 0 -10 7 -10 15 0 8 -8 15
-19 15 -21 0 -45 -23 -34 -33 3 -4 1 -7 -5 -7 -6 0 -16 9 -22 21 -10 17 -14
18 -28 7 -12 -10 -14 -10 -8 0 4 6 2 12 -3 12 -17 0 -13 -47 4 -54 8 -3 15
-12 15 -21 0 -12 -4 -14 -19 -5 -11 5 -28 10 -39 10 -23 0 -46 -45 -33 -68 19
-38 -14 -58 -37 -22 -12 20 -13 20 -42 -7 -34 -30 -37 -41 -13 -58 13 -10 14
-17 5 -44 -6 -18 -9 -45 -5 -62 6 -30 5 -30 -35 -28 -45 3 -82 -20 -82 -51 0
-23 -23 -41 -62 -49 -24 -5 -32 -12 -33 -30 -1 -14 -11 -32 -23 -41 -14 -11
-19 -24 -15 -38 4 -17 0 -21 -24 -24 -17 -2 -28 -9 -28 -18 0 -16 -44 -52 -84
-70 -26 -12 -81 -55 -122 -96 -22 -22 -30 -24 -47 -15 -27 14 -32 14 -32 -3 0
-8 -13 -24 -30 -36 -16 -12 -30 -27 -30 -34 0 -16 -45 -40 -58 -32 -6 3 -13
-3 -17 -14 -8 -24 -30 -26 -39 -4 -10 25 -31 10 -31 -22 0 -26 -4 -30 -45 -40
-31 -7 -49 -18 -57 -35 -9 -16 -19 -23 -34 -21 -12 2 -31 -6 -44 -18 -16 -15
-30 -20 -44 -15 -14 4 -23 1 -27 -9 -13 -33 -105 -59 -146 -41 -13 5 -21 0
-30 -20 -9 -21 -16 -25 -32 -19 -35 12 -87 6 -107 -12 -17 -15 -19 -15 -19 -1
0 13 -14 17 -72 19 -46 2 -73 7 -76 16 -2 6 3 12 11 12 8 0 20 7 27 15 11 13
7 15 -23 15 -40 0 -55 -14 -38 -34 9 -11 6 -15 -13 -20 -29 -7 -56 2 -73 23
-12 14 -14 14 -27 -1 -14 -19 -45 -24 -47 -8 -1 6 -2 14 -3 20 -3 25 -26 34
-58 22 -38 -14 -58 -2 -38 23 11 13 8 16 -19 21 -20 4 -38 17 -49 36 -21 36
-44 32 -57 -10 -6 -21 -15 -32 -27 -32 -10 0 -18 5 -18 10 0 19 -18 10 -23
-12 -4 -12 -9 -19 -13 -16 -3 4 -2 20 4 36 5 16 7 41 5 56 -5 24 -9 27 -32 20
-29 -8 -41 -8 -88 -6 -22 1 -33 7 -33 17 0 8 -7 15 -15 15 -8 0 -15 4 -15 9 0
5 -11 9 -25 9 -18 0 -25 -5 -23 -17 2 -10 -5 -17 -19 -19 -16 -2 -23 2 -23 12
0 22 -16 20 -40 -4 -26 -26 -75 -21 -107 10 -23 22 -24 22 -43 5 -11 -10 -26
-15 -36 -11 -15 6 -15 8 1 26 10 11 25 20 34 20 11 0 7 8 -14 26 -22 19 -36
23 -55 18 -14 -4 -37 -6 -51 -5 -22 1 -29 -5 -37 -29 -16 -43 -29 -40 -73 20
-14 19 -29 43 -32 54 -9 22 -47 16 -89 -14 -35 -25 -58 -25 -58 -1 0 18 -15
35 -32 36 -12 0 -22 15 -10 15 7 0 12 5 12 10 0 6 -17 10 -39 8 -22 -1 -47 4
-56 12 -13 11 -18 11 -31 -2 -9 -8 -26 -13 -39 -10 -20 3 -23 9 -19 31 5 22 1
29 -21 39 -14 7 -31 12 -38 12 -7 0 -20 9 -30 20 -9 11 -24 20 -32 20 -8 0
-15 9 -15 19 0 29 -23 47 -82 66 -29 10 -60 23 -68 30 -8 7 -28 17 -45 22 -20
6 -30 16 -30 29 0 10 -7 22 -16 26 -9 3 -19 20 -22 36 -4 21 -17 35 -44 50
-21 11 -37 25 -35 32 2 7 -5 9 -18 5 -11 -3 -29 -3 -40 0 -16 5 -18 10 -10 26
9 16 7 19 -8 19 -11 0 -22 9 -25 21 -5 17 -9 19 -26 9 -24 -12 -28 -30 -7 -30
20 0 31 -19 19 -31 -11 -11 -63 43 -63 66 0 8 -12 15 -27 17 -22 2 -29 9 -31
31 -3 27 -6 28 -40 23 -41 -6 -67 8 -73 39 -2 10 -15 22 -28 25 -27 6 -45 41
-27 52 17 11 -3 23 -22 12 -9 -5 -26 -8 -36 -6 -15 3 -16 6 -5 13 11 6 11 11
1 21 -19 19 -14 45 9 51 12 3 18 10 15 16 -4 5 0 13 7 18 20 12 28 42 17 64
-15 26 15 38 38 15 14 -13 14 -20 4 -36 -18 -29 -16 -31 23 -28 27 2 35 7 36
23 1 11 2 25 4 30 1 6 3 13 3 18 1 4 15 1 30 -7 35 -18 58 -6 67 34 5 23 12
30 30 30 12 0 25 -7 29 -15 3 -9 18 -15 36 -15 39 0 39 16 0 25 -30 7 -42 36
-20 50 5 3 10 15 10 26 0 12 7 19 18 19 21 0 43 -22 60 -62 9 -23 9 -29 -6
-37 -14 -8 -12 -11 13 -17 25 -6 33 -2 62 31 37 43 36 53 -5 47 -21 -3 -37 3
-56 19 -31 27 -33 39 -6 39 10 0 24 9 30 20 13 24 34 21 88 -16 40 -28 47 -24
67 32 8 22 14 33 15 27 0 -14 40 -18 40 -5 0 15 -71 42 -94 36 -31 -7 -37 5
-24 47 7 24 20 39 40 48 31 14 47 39 32 50 -5 3 -9 15 -9 26 0 11 -7 20 -15
20 -10 0 -14 -8 -13 -23 2 -17 -2 -22 -20 -22 -19 0 -22 6 -24 42 -1 47 10 60
45 51 24 -6 55 13 46 29 -4 6 -19 8 -34 4 -35 -7 -62 18 -29 27 30 8 18 30
-20 38 -28 6 -34 4 -42 -18 -8 -21 -12 -22 -30 -12 -15 8 -18 14 -10 22 6 6
11 19 11 29 0 16 3 17 20 8 17 -9 22 -7 29 12 7 20 4 25 -25 41 -39 20 -42 36
-14 62 27 24 25 47 -6 76 -18 17 -38 24 -67 26 -23 0 -45 2 -49 2 -14 2 -8 32
7 37 29 11 15 19 -36 21 -29 0 -62 7 -75 13 -30 17 -58 6 -51 -20 7 -28 -7
-25 -42 11 -24 24 -31 39 -31 69 0 46 16 46 41 1 9 -15 26 -30 38 -34 11 -3
19 -1 16 3 -7 12 36 52 50 46 39 -16 45 -17 45 -7 0 5 -9 15 -20 21 -14 7 -20
21 -20 44 0 20 -8 40 -20 51 -17 16 -24 16 -44 6 -14 -8 -36 -10 -55 -6 -24 5
-31 12 -31 31 0 16 -8 28 -25 36 -18 8 -25 18 -23 32 2 12 10 20 17 18 9 -2
12 4 8 18 -6 24 15 27 33 5 7 -8 19 -15 27 -15 8 0 21 -7 30 -15 8 -8 19 -13
24 -10 5 4 9 1 9 -4 0 -6 7 -11 16 -11 21 0 12 23 -12 30 -32 9 -74 42 -67 53
3 5 1 7 -4 4 -6 -4 -16 0 -23 8 -7 8 -16 13 -20 10 -10 -6 -40 5 -40 15 0 4
11 11 25 14 16 4 32 21 44 46 11 22 15 40 11 40 -5 0 -12 -5 -15 -11 -5 -7
-14 -5 -30 5 -21 14 -24 13 -40 -4 -23 -26 -41 -25 -48 1 -4 15 -11 20 -22 15
-21 -8 -31 20 -15 39 7 9 20 14 28 13 25 -4 26 31 3 53 -17 16 -19 23 -9 44
12 28 20 30 49 15 16 -9 19 -7 19 8 0 11 -8 22 -17 26 -10 3 -24 9 -32 12 -8
4 -11 2 -7 -4 3 -6 0 -14 -7 -19 -8 -4 -16 -15 -19 -23 -3 -10 -10 -5 -22 18
-13 26 -17 53 -14 116 3 79 2 83 -17 78 -11 -3 -25 -13 -32 -21 -11 -14 -12
-11 -13 16 0 24 -8 38 -30 54 -23 17 -28 28 -24 45 5 19 0 26 -24 36 -30 13
-54 31 -163 121 -67 54 -86 59 -86 20 0 -16 -3 -59 -5 -98 -3 -40 -1 -75 4
-82 7 -9 5 -21 -6 -38 -20 -30 -20 -45 -2 -45 26 0 27 -18 1 -44 -28 -28 -31
-52 -10 -80 21 -28 19 -54 -5 -61 -12 -4 -20 -15 -20 -28 0 -32 14 -49 33 -41
12 4 17 1 17 -14 0 -11 -7 -23 -16 -26 -23 -9 -24 -8 -24 14 0 13 -7 20 -18
20 -24 0 -42 -19 -42 -45 0 -30 -25 -94 -43 -113 -10 -10 -17 -12 -17 -4 0 6
-7 9 -15 6 -38 -15 -61 51 -30 83 21 21 14 37 -17 41 -32 4 -39 18 -49 102
-21 161 -22 210 -6 268 9 31 19 91 22 132 4 41 13 100 21 130 8 30 18 82 22
115 5 33 11 67 13 75 2 8 -3 15 -11 15 -8 0 -15 -7 -15 -15 0 -8 -10 -20 -23
-26 -13 -6 -29 -20 -36 -30 -17 -25 -73 -189 -81 -239 -4 -22 -14 -63 -21 -91
-8 -29 -16 -80 -18 -115 -2 -35 -7 -81 -11 -101 -5 -24 -3 -43 3 -51 6 -7 12
-42 13 -78 0 -35 8 -111 16 -168 9 -60 13 -128 9 -158 -6 -50 -5 -54 19 -63
18 -7 25 -17 25 -35 0 -15 5 -36 12 -48 17 -31 29 -93 32 -162 2 -33 8 -73 14
-88 7 -16 12 -36 12 -45 1 -9 7 -28 15 -42 8 -14 14 -41 15 -61 0 -25 10 -48
31 -75 17 -21 26 -40 20 -42 -18 -6 -12 -47 10 -66 18 -15 20 -24 14 -64 -4
-26 -11 -52 -16 -58 -12 -15 -1 -44 16 -44 17 0 75 -51 75 -67 0 -24 -40 -25
-60 -1 l-19 23 -1 -23 c0 -29 -44 -48 -77 -33 -13 6 -24 14 -24 18 -6 36 -5
53 4 53 26 0 -7 14 -41 17 -20 2 -42 5 -48 7 -12 5 -54 85 -54 103 0 12 -55
43 -75 43 -14 0 -25 22 -25 51 0 23 8 24 32 2 10 -9 18 -11 18 -5 0 23 -32 92
-44 94 -6 0 -15 2 -21 3 -5 2 -17 3 -26 4 -19 1 -61 120 -48 137 5 6 3 16 -3
22 -18 18 -28 14 -28 -12 0 -14 -10 -30 -25 -40 -27 -18 -50 -21 -40 -7 3 5 1
12 -5 16 -6 4 -7 23 -4 45 6 36 4 39 -21 46 -26 6 -27 9 -20 48 13 79 -1 176
-25 161 -14 -8 -13 -58 1 -72 14 -14 5 -43 -14 -43 -27 0 -39 30 -43 111 -4
80 -14 109 -38 109 -14 0 -51 38 -57 57 -2 6 -20 22 -39 36 -26 17 -34 29 -32
48 7 61 4 109 -5 121 -6 7 -13 47 -16 88 -3 41 -7 86 -9 100 -2 17 1 24 11 22
8 -2 21 0 29 3 12 4 11 10 -9 32 -16 18 -20 27 -11 30 18 7 15 21 -8 28 -16 5
-19 12 -14 33 4 15 16 37 28 50 l21 23 -25 19 c-19 15 -21 20 -9 20 9 0 22 7
29 15 18 21 29 19 42 -11 11 -24 13 -25 25 -8 7 10 13 32 13 50 0 28 24 63 39
56 13 -6 11 36 -3 47 -12 10 -16 8 -21 -8 -8 -26 -41 -46 -50 -30 -7 10 0 19
53 79 12 13 22 33 22 42 0 10 5 18 10 18 6 0 10 -7 10 -16 0 -23 23 -12 38 19
7 15 20 27 28 27 26 0 16 40 -13 51 l-28 11 23 11 c12 5 22 14 22 19 0 5 8 7
19 3 14 -4 24 3 40 30 22 38 20 55 -5 55 -8 0 -14 2 -14 5 0 11 25 50 37 58
17 10 6 66 -18 93 -11 11 -19 28 -19 38 0 15 7 17 39 14 29 -2 42 1 50 14 12
20 0 31 -24 22 -21 -8 -35 11 -35 47 0 18 6 28 20 32 24 6 26 25 4 34 -10 4
-22 -1 -29 -10 -14 -19 -40 -22 -50 -7 -4 6 -11 8 -16 5 -5 -4 -9 3 -9 14 0
15 7 21 23 22 12 0 32 13 45 29 22 28 22 31 8 52 -33 47 -11 108 40 108 14 0
24 6 24 14 0 26 -21 29 -44 7 -12 -12 -29 -21 -37 -21 -22 0 -39 -21 -39 -47
0 -13 -5 -23 -11 -23 -6 0 -8 7 -5 16 3 9 6 31 6 50 0 24 5 37 18 41 29 10 53
36 68 72 16 37 8 51 -28 51 -24 0 -23 18 3 39 25 20 40 92 28 135 -5 17 -9 48
-9 68 0 34 4 39 38 54 33 14 35 17 17 25 -15 7 -11 8 19 6 38 -2 59 14 37 28
-20 12 -11 34 18 49 22 12 30 24 33 51 l4 35 -43 0 c-24 0 -43 5 -43 11 0 17
64 80 76 75 7 -3 22 9 35 26 26 33 68 58 98 58 11 0 27 8 37 18 15 15 40 17
178 19 89 1 199 -3 246 -8 83 -8 86 -10 130 -54 56 -56 119 -105 135 -105 7 0
41 -13 77 -29 70 -32 250 -99 333 -124 153 -46 348 -60 461 -33 38 9 113 17
166 19 54 2 101 6 104 10 4 4 16 7 26 7 13 0 18 7 18 25 0 14 5 25 10 25 6 0
15 -11 20 -25 5 -14 14 -25 20 -25 13 0 30 43 30 75 0 25 -2 26 -76 40 -11 3
-73 5 -136 6 l-116 1 10 30 c13 38 4 107 -21 156 -39 75 -124 133 -218 148
-118 19 -293 -100 -293 -199 0 -15 -4 -27 -8 -27 -22 0 -109 35 -127 50 -11
10 -30 21 -42 25 -13 3 -23 10 -23 14 0 31 122 112 245 163 72 29 92 32 201
36 141 5 228 -14 354 -78 140 -71 276 -225 264 -301 -5 -32 -4 -35 38 -51 43
-17 98 -15 98 5 0 5 -15 28 -33 51 -19 23 -40 52 -47 66 -7 14 -20 30 -29 37
-14 10 -14 14 7 35 27 30 28 54 3 70 -24 15 -10 38 23 38 21 0 86 -56 86 -74
0 -4 9 -21 21 -37 16 -23 19 -38 14 -70 -5 -29 -2 -46 9 -64 16 -24 13 -73 -4
-85 -4 -3 -10 -15 -14 -28 -7 -22 -6 -22 36 -16 24 4 51 11 60 15 9 5 26 9 37
9 11 0 37 11 57 25 20 14 43 25 50 25 8 0 14 9 14 21 0 18 4 20 31 14 26 -6
36 -2 59 21 77 78 85 84 107 78 17 -5 27 2 47 35 30 48 31 54 10 72 -11 9 -14
22 -9 48 4 20 11 40 16 46 14 14 11 62 -5 77 -11 11 -11 16 2 36 13 20 13 24
-2 40 -8 10 -21 33 -27 51 -10 29 -15 32 -38 28 -39 -8 -55 6 -53 46 1 30 -3
37 -26 45 -59 21 -116 107 -94 142 9 14 7 22 -9 36 -10 9 -19 25 -19 35 0 27
-19 33 -41 13 -17 -16 -22 -16 -30 -4 -9 12 -10 11 -6 -6 2 -11 -2 -29 -11
-40 -14 -18 -14 -18 -10 8 3 15 1 26 -5 25 -5 -1 -12 4 -14 11 -3 6 0 12 6 12
20 0 11 28 -19 58 -16 17 -31 27 -31 24 -1 -4 -2 -11 -4 -17 -1 -5 -3 -18 -3
-28 -3 -31 -30 -31 -61 2 -17 18 -24 32 -17 35 6 2 3 5 -8 5 -15 1 -17 -4 -12
-29 l6 -30 -54 0 c-39 0 -55 4 -60 15 -4 12 -14 14 -41 9 -25 -4 -43 -1 -62
11 -34 23 -142 27 -162 7 -10 -9 -24 -12 -45 -7 -28 6 -70 8 -128 4 -13 0 -48
2 -78 5 -93 11 -124 9 -140 -12 -18 -22 -71 -42 -111 -42 -22 0 -29 -5 -29
-19 0 -25 -30 -34 -83 -26 -54 9 -61 14 -45 32 20 25 -24 51 -77 45 -48 -5
-95 19 -95 49 0 22 -37 49 -67 49 -35 0 -28 19 13 36 27 11 39 12 44 4 5 -8
11 -7 22 3 29 29 81 49 114 44 22 -4 37 -1 45 9 6 8 24 14 39 14 15 0 33 7 40
15 14 17 57 19 96 5 37 -14 223 -15 265 -1 25 8 49 8 89 0 30 -6 78 -13 105
-15 28 -3 66 -13 85 -24 19 -10 53 -21 75 -25 63 -11 75 -15 75 -31 0 -17 31
-19 48 -2 10 10 17 9 35 -2 12 -8 38 -15 57 -17 112 -9 130 -14 131 -37 l0
-21 9 22 c11 27 47 37 101 30 36 -5 41 -2 54 23 8 16 15 36 15 44 0 8 9 31 21
50 24 40 19 67 -15 89 -13 9 -38 29 -56 46 -31 27 -35 29 -46 13 -11 -15 -14
-15 -31 -1 -10 9 -37 26 -60 38 -34 17 -47 19 -69 11 -21 -8 -33 -7 -60 9 -23
14 -34 16 -37 8 -3 -9 -9 -9 -26 1 -25 15 -48 16 -53 2 -2 -6 -26 8 -53 31
-47 39 -53 41 -97 36 -41 -5 -52 -2 -78 19 -27 23 -31 24 -46 10 -8 -9 -21
-16 -27 -16 -31 1 -89 29 -117 58 -35 37 -60 41 -67 12 -8 -31 -43 -23 -56 13
-10 26 -36 32 -51 12 -20 -27 -36 -9 -36 41 0 24 -2 44 -3 44 -2 0 -18 -7 -35
-16 -31 -15 -43 -46 -22 -59 6 -3 10 -10 10 -16 0 -16 -33 -10 -54 10 -12 11
-37 21 -56 23 -32 3 -35 1 -36 -25 -1 -37 -10 -43 -34 -22 -22 20 -70 14 -70
-9 0 -9 -7 -12 -20 -9 -12 3 -28 -2 -38 -11 -10 -8 -34 -21 -53 -27 -49 -16
-118 -49 -125 -60 -3 -5 -15 -9 -27 -9 -21 1 -21 2 5 23 91 73 147 107 183
107 20 1 20 1 1 15 -25 19 -52 19 -60 0 -3 -8 -16 -15 -28 -15 l-23 0 25 25
c14 13 54 40 90 58 80 43 88 59 26 51 -31 -5 -51 -2 -61 6 -13 11 -18 9 -34
-9 -22 -25 -46 -28 -37 -5 3 9 6 20 6 24 0 16 44 51 88 70 41 18 57 50 32 65
-15 9 -70 -24 -79 -47 -7 -20 -8 -20 -34 8 -29 31 -36 64 -13 64 8 0 18 -4 21
-10 14 -22 36 -10 33 17 -2 19 2 28 12 29 30 2 31 4 16 20 -14 13 -14 17 -1
30 8 8 12 20 9 28 -3 7 2 19 11 26 8 7 15 17 15 23 0 6 10 21 22 34 18 20 19
23 5 23 -9 0 -25 -8 -36 -19z m-211 -451 c0 -5 -2 -10 -4 -10 -3 0 -8 5 -11
10 -3 6 -1 10 4 10 6 0 11 -4 11 -10z m52 -590 c12 -11 28 -20 35 -20 21 0 15
-28 -7 -35 -11 -3 -25 -15 -30 -26 -6 -10 -17 -19 -25 -19 -22 0 -30 22 -11
32 9 5 16 21 16 35 0 23 -3 25 -27 19 -46 -11 -58 -12 -63 -1 -3 6 11 11 30
13 19 2 39 8 45 13 12 12 13 12 37 -11z m978 -85 c11 -13 8 -15 -14 -15 -16 0
-26 5 -26 15 0 8 6 15 14 15 7 0 19 -7 26 -15z m-722 -117 c-7 -20 -48 -23
-48 -4 0 11 9 16 26 16 16 0 24 -5 22 -12z m-1218 -47 c0 -6 -4 -13 -10 -16
-5 -3 -10 1 -10 9 0 9 5 16 10 16 6 0 10 -4 10 -9z m1570 -78 c36 -2 79 -6 95
-8 40 -4 133 -31 148 -43 7 -5 32 -17 57 -26 47 -18 108 -56 145 -91 12 -11
34 -29 48 -40 14 -11 26 -30 27 -41 0 -15 8 -24 25 -28 15 -4 22 -11 19 -20
-9 -23 -31 -26 -71 -10 -48 20 -48 20 -33 39 10 12 10 19 1 28 -8 8 -18 7 -40
-6 -34 -20 -45 -11 -35 29 7 26 6 26 -34 19 -35 -5 -41 -4 -46 13 -4 11 -28
29 -56 41 -28 12 -50 28 -50 37 0 23 -29 28 -50 9 -22 -20 -55 -13 -47 9 10
27 -24 26 -48 0 -20 -21 -30 -25 -54 -19 -17 4 -31 11 -31 16 0 13 -34 11 -48
-3 -9 -9 -21 -8 -52 2 -38 13 -53 10 -56 -11 -1 -5 -2 -13 -3 -19 0 -5 -17
-10 -37 -10 -31 0 -35 3 -29 20 3 11 4 24 0 29 -8 14 -35 2 -35 -15 0 -26 -32
-33 -56 -11 -13 11 -24 26 -24 33 0 18 88 51 175 64 44 7 84 17 90 22 5 4 16
6 25 2 8 -3 44 -8 80 -11z m-535 -133 c11 -17 -5 -32 -21 -19 -8 6 -14 15 -14
20 0 12 27 11 35 -1z m639 -346 c23 -9 20 -51 -4 -64 -24 -13 -38 -6 -50 24
-13 35 14 55 54 40z m-225 -99 c60 -20 94 -25 154 -23 53 2 80 -1 89 -10 11
-11 -5 -13 -92 -11 -58 2 -117 0 -131 -5 -21 -6 -27 -4 -31 11 -4 16 -20 23
-128 57 -8 2 2 5 23 5 21 1 73 -10 116 -24z m11 -85 c0 -5 -4 -10 -10 -10 -5
0 -10 5 -10 10 0 6 5 10 10 10 6 0 10 -4 10 -10z m-70 -16 c0 -9 -5 -14 -12
-12 -18 6 -21 28 -4 28 9 0 16 -7 16 -16z m402 -24 c5 -35 -6 -47 -27 -30 -22
18 -19 60 4 60 13 0 20 -9 23 -30z m106 -2 c19 -19 14 -29 -12 -22 -13 3 -27
1 -31 -5 -8 -14 -25 -5 -25 14 0 7 10 16 23 18 12 2 24 5 28 6 3 0 10 -4 17
-11z m-2145 -489 c-4 -13 -9 -17 -15 -11 -11 11 -3 32 12 32 4 0 6 -9 3 -21z
m-3 -375 c0 -31 -23 -28 -28 4 -2 15 2 22 12 22 11 0 16 -9 16 -26z m1065
-934 c-3 -5 -11 -10 -16 -10 -6 0 -7 5 -4 10 3 6 11 10 16 10 6 0 7 -4 4 -10z
m-375 -333 c0 -8 9 -22 20 -32 19 -17 19 -19 4 -37 -13 -13 -31 -18 -71 -18
-50 0 -53 1 -53 25 0 32 26 44 44 20 15 -20 41 -11 32 11 -7 17 3 44 15 44 5
0 9 -6 9 -13z m540 -36 c0 -5 -9 -7 -20 -4 -11 3 -20 7 -20 9 0 2 9 4 20 4 11
0 20 -4 20 -9z m-416 -65 c-7 -19 -34 -29 -34 -12 0 7 3 16 7 19 12 13 32 7
27 -7z m574 -494 c2 -7 -6 -12 -17 -12 -21 0 -27 11 -14 24 9 9 26 2 31 -12z
m212 -31 c20 -39 13 -52 -27 -49 -33 3 -38 7 -41 30 -3 21 2 27 20 31 13 2 26
5 30 6 4 0 12 -8 18 -18z m-50 -121 c0 -5 -4 -10 -9 -10 -6 0 -13 5 -16 10 -3
6 1 10 9 10 9 0 16 -4 16 -10z m-1323 -20 c-2 -24 -21 -21 -25 3 -2 10 3 17
12 17 9 0 14 -8 13 -20z m1363 -50 c0 -5 -4 -10 -9 -10 -6 0 -13 5 -16 10 -3
6 1 10 9 10 9 0 16 -4 16 -10z m71 -62 c0 -22 1 -22 9 -3 7 18 8 19 15 3 10
-25 -1 -48 -24 -48 -22 0 -32 19 -24 49 7 28 23 27 24 -1z m-1357 -45 c4 -9 3
-20 -2 -25 -11 -11 -36 17 -27 32 9 15 22 12 29 -7z m1183 -109 c-9 -9 -28 6
-21 18 4 6 10 6 17 -1 6 -6 8 -13 4 -17z m-850 -99 c2 -6 -10 -15 -25 -21 -24
-9 -31 -8 -40 7 -8 13 -8 19 1 23 19 8 60 2 64 -9z m951 -23 c2 -7 -3 -12 -12
-12 -9 0 -16 7 -16 16 0 17 22 14 28 -4z m-970 -45 c2 -10 -3 -17 -12 -17 -10
0 -16 9 -16 21 0 24 23 21 28 -4z m856 -36 c3 -5 -5 -12 -19 -15 -16 -4 -25
-13 -25 -25 0 -18 -2 -19 -30 -5 -29 15 -38 33 -23 47 10 10 91 8 97 -2z
m-484 -111 c6 0 10 -14 10 -30 0 -23 6 -33 26 -40 26 -10 25 -30 -2 -30 -8 0
-14 -10 -14 -24 0 -36 -13 -39 -59 -15 -46 24 -52 45 -18 58 20 8 23 15 19 43
-3 18 -14 39 -25 47 -19 14 -20 15 -2 21 12 4 25 0 37 -12 10 -10 23 -18 28
-18z m120 -23 c0 -17 -20 -37 -37 -37 -16 0 -17 22 -1 38 16 16 38 15 38 -1z
m68 -45 c2 -7 -3 -12 -12 -12 -9 0 -16 7 -16 16 0 17 22 14 28 -4z m-108 -42
c0 -5 -4 -10 -10 -10 -5 0 -10 5 -10 10 0 6 5 10 10 10 6 0 10 -4 10 -10z m44
-61 c5 -15 6 -35 2 -44 -6 -16 -10 -13 -31 15 -31 43 -32 62 -3 58 14 -2 26
-13 32 -29z m1346 -898 c0 -12 -20 -25 -27 -18 -7 7 6 27 18 27 5 0 9 -4 9 -9z
m574 -92 c3 -2 -6 -9 -20 -16 -21 -10 -24 -9 -24 8 0 13 6 18 20 16 11 -2 22
-5 24 -8z m35 -86 c-8 -9 -16 -10 -22 -4 -13 13 0 31 19 24 11 -4 12 -8 3 -20z"/>
<path d="M3560 7306 c0 -9 7 -16 16 -16 17 0 14 22 -4 28 -7 2 -12 -3 -12 -12z"/>
<path d="M58 6758 c-6 -57 7 -71 16 -17 4 23 3 46 -2 51 -6 6 -12 -7 -14 -34z"/>
<path d="M3470 6355 c0 -14 5 -25 10 -25 6 0 10 11 10 25 0 14 -4 25 -10 25
-5 0 -10 -11 -10 -25z"/>
<path d="M3537 6373 c-13 -12 -7 -23 13 -23 11 0 20 7 20 15 0 15 -21 21 -33
8z"/>
<path d="M3198 6339 c-24 -13 -23 -39 1 -39 23 0 54 28 46 41 -8 12 -25 11
-47 -2z"/>
<path d="M3484 6299 c-32 -11 -36 -24 -14 -44 21 -19 35 -15 43 14 7 28 -5 40
-29 30z"/>
<path d="M3752 6278 c3 -7 15 -15 27 -16 16 -3 22 1 19 10 -3 7 -15 15 -27 16
-16 3 -22 -1 -19 -10z"/>
<path d="M6076 6248 c-10 -6 -46 -16 -80 -23 -52 -11 -62 -10 -72 2 -9 14 -14
14 -40 1 -16 -9 -48 -18 -72 -21 -49 -6 -77 -32 -88 -79 -5 -23 -2 -33 10 -40
9 -5 16 -19 16 -31 0 -12 4 -27 8 -33 11 -17 106 -44 130 -37 16 4 22 1 22
-11 0 -12 -10 -16 -40 -16 -64 0 -118 -47 -74 -64 14 -5 14 -9 3 -23 -8 -9
-12 -25 -11 -36 3 -17 0 -19 -30 -13 -27 5 -39 2 -53 -14 -12 -13 -25 -18 -38
-14 -14 4 -26 -1 -39 -17 -46 -57 -47 -61 -39 -134 5 -39 4 -75 -1 -81 -5 -7
-4 -23 2 -38 5 -15 10 -41 10 -57 0 -16 6 -32 14 -35 8 -3 19 -19 25 -35 11
-31 51 -42 51 -14 0 8 7 15 15 15 23 0 18 -28 -9 -53 -22 -20 -23 -24 -10 -42
14 -19 13 -20 -17 -25 -47 -7 -50 -30 -5 -30 26 0 39 5 43 17 13 32 53 64 76
61 31 -4 33 -39 4 -74 -37 -45 -39 -61 -11 -68 37 -10 29 -34 -21 -64 -55 -33
-60 -46 -30 -66 27 -18 104 -12 110 8 2 6 6 22 9 36 12 56 180 159 311 191
153 36 350 14 484 -56 58 -30 133 -98 188 -173 32 -42 62 -80 67 -83 25 -19
-157 -34 -339 -29 -11 1 -29 -4 -42 -11 -13 -7 -35 -9 -60 -4 l-38 8 28 8 c50
14 60 29 53 77 -18 134 -126 222 -272 222 -56 0 -81 -5 -122 -26 -64 -32 -116
-91 -138 -156 -13 -39 -19 -48 -33 -42 -56 23 -70 26 -94 20 -22 -5 -27 -12
-27 -36 0 -22 6 -33 23 -39 12 -5 32 -20 43 -34 20 -22 174 -87 209 -87 7 0
64 -21 127 -46 154 -62 209 -80 303 -98 71 -14 92 -14 187 -2 59 8 114 19 124
24 27 15 -39 24 -92 12 -30 -7 -51 -7 -64 0 -10 5 -48 10 -83 10 -60 0 -131
22 -199 60 -10 6 -28 10 -40 10 -13 0 -33 3 -45 6 l-23 6 21 29 c19 28 59 40
59 19 0 -5 7 -10 16 -10 9 0 31 -7 50 -16 27 -13 37 -14 49 -4 9 7 27 10 45 7
16 -4 32 -2 35 2 3 5 28 12 57 16 46 7 53 5 68 -15 20 -27 51 -23 65 8 12 26
33 28 73 5 29 -17 31 -17 52 2 13 11 32 18 46 17 20 -3 24 1 24 22 0 29 10 38
30 26 9 -5 20 -5 27 2 11 9 10 15 -7 33 -17 18 -19 27 -10 49 15 40 12 53 -10
59 -12 3 -20 14 -20 26 0 14 -9 25 -25 31 -17 7 -25 17 -25 34 0 14 -8 29 -17
35 -13 7 -14 12 -6 23 20 23 -1 41 -41 36 -34 -4 -36 -2 -36 24 0 32 -9 34
-49 13 -26 -13 -30 -13 -41 0 -10 12 -10 18 1 31 10 13 10 17 -2 25 -19 12
-36 11 -59 -3 -24 -15 -53 -1 -58 28 -6 32 -20 39 -41 20 -26 -23 -41 -13 -41
27 0 48 12 61 51 53 19 -4 61 -9 94 -13 33 -3 65 -10 72 -15 7 -5 21 -7 33 -3
17 5 19 10 9 21 -6 8 -20 14 -30 14 -11 0 -19 7 -19 15 0 14 11 19 36 16 11
-1 46 76 41 94 -1 5 -13 10 -26 10 -15 0 -27 8 -32 23 -5 12 -15 22 -24 22 -8
0 -32 9 -52 20 -21 11 -45 20 -53 20 -9 0 -31 11 -50 25 -19 14 -42 25 -52 25
-10 0 -57 14 -105 30 -47 17 -102 30 -122 30 -26 0 -44 8 -68 32 -25 24 -35
29 -46 20 -18 -15 -77 12 -77 34 0 23 137 11 155 -13 11 -14 17 -15 37 -6 21
9 39 6 106 -18 45 -15 92 -35 104 -43 13 -8 66 -20 118 -27 63 -7 111 -19 142
-36 43 -21 105 -43 178 -60 14 -3 35 -17 47 -30 12 -12 34 -23 48 -23 14 0 33
-8 44 -17 10 -10 44 -33 75 -52 31 -19 72 -53 91 -75 46 -55 57 -42 44 49 -14
95 -27 135 -54 165 -12 14 -32 41 -44 61 -12 21 -33 44 -47 54 -17 11 -23 22
-19 35 7 23 -20 67 -46 75 -11 4 -31 24 -45 46 -13 21 -30 39 -37 39 -7 0 -28
16 -47 35 -19 19 -41 35 -50 35 -9 0 -26 18 -38 39 -13 22 -31 43 -41 46 -11
3 -22 12 -25 20 -3 8 -12 15 -21 15 -8 0 -15 7 -15 15 0 20 -14 19 -31 -2 -11
-13 -11 -17 -1 -20 6 -3 12 -10 12 -16 0 -8 -4 -7 -12 1 -7 7 -22 12 -34 12
-16 0 -24 7 -26 23 -2 12 -7 22 -13 21 -15 -1 -19 -36 -4 -45 9 -5 6 -17 -16
-45 -28 -36 -29 -37 -45 -17 -13 17 -18 18 -28 6 -14 -15 -42 -18 -42 -4 0 4
-21 11 -47 15 -25 3 -55 13 -64 22 -17 15 -21 15 -59 -5 -45 -23 -60 -21 -60
10 0 21 -21 25 -52 8 -18 -10 -24 -8 -38 11 -14 19 -20 21 -38 11 -28 -15 -30
-14 -34 11 -4 26 -17 31 -42 16z m-221 -98 c-3 -5 -17 -10 -31 -10 -14 0 -22
4 -19 10 3 6 17 10 31 10 14 0 22 -4 19 -10z m855 0 c0 -5 -5 -10 -11 -10 -5
0 -7 5 -4 10 3 6 8 10 11 10 2 0 4 -4 4 -10z m-742 -228 c2 -7 -3 -12 -10 -12
-15 0 -38 19 -38 32 0 11 43 -7 48 -20z m757 -322 c3 -5 -1 -10 -10 -10 -9 0
-13 5 -10 10 3 6 8 10 10 10 2 0 7 -4 10 -10z m-35 -91 c0 -5 -7 -9 -15 -9 -8
0 -15 7 -15 15 0 9 6 12 15 9 8 -4 15 -10 15 -15z m-242 -5 c17 -3 32 -6 32
-8 0 -2 -9 -25 -21 -51 -23 -52 -35 -50 -55 8 -12 37 -25 39 -39 8 -7 -17 -16
-21 -35 -18 -14 3 -32 1 -40 -3 -8 -4 -39 -3 -69 3 -52 10 -55 9 -77 -16 -28
-33 -37 -34 -57 -4 l-15 22 -30 -29 c-32 -29 -62 -30 -62 -2 0 17 75 60 89 51
5 -2 22 2 37 10 16 8 45 15 65 15 19 0 39 4 45 9 16 17 135 20 232 5z m-508
-116 c-1 -19 -67 -58 -97 -58 -34 0 -25 22 15 36 18 5 37 15 44 22 16 16 38
15 38 0z m454 -314 c21 -20 20 -27 -3 -48 -23 -21 -49 -11 -57 21 -10 39 30
57 60 27z m-1 -100 c3 -4 -1 -13 -10 -22 -12 -13 -19 -13 -35 -3 -14 9 -23 9
-33 1 -15 -12 -85 -3 -85 11 0 4 24 10 53 12 28 2 64 4 78 5 14 1 28 -1 32 -4z
m-251 -66 c-9 -9 -15 -9 -24 0 -9 9 -7 12 12 12 19 0 21 -3 12 -12z m88 -18
c0 -5 -2 -10 -4 -10 -3 0 -8 5 -11 10 -3 6 -1 10 4 10 6 0 11 -4 11 -10z"/>
<path d="M4525 6240 c-3 -5 -1 -10 4 -10 6 0 11 5 11 10 0 6 -2 10 -4 10 -3 0
-8 -4 -11 -10z"/>
<path d="M8803 6028 c-27 -16 -36 -32 -53 -91 -42 -148 -52 -175 -65 -193 -8
-11 -15 -30 -15 -43 0 -23 1 -24 20 -6 11 10 20 24 20 30 0 7 9 24 20 38 14
17 19 34 15 49 -5 18 3 34 34 67 23 25 41 48 41 53 0 5 12 27 26 49 40 64 20
86 -43 47z"/>
<path d="M1933 6033 c-22 -8 -14 -23 11 -23 30 0 42 15 20 24 -9 3 -16 6 -17
5 -1 0 -8 -3 -14 -6z"/>
<path d="M8560 5981 c0 -6 -8 -11 -18 -11 -17 0 -52 -30 -119 -104 -32 -34
-37 -45 -34 -76 1 -19 -8 -32 -34 -46 -11 -6 -21 -20 -23 -32 -2 -11 -11 -23
-20 -26 -36 -13 -64 -35 -76 -57 -7 -13 -24 -44 -37 -69 -12 -25 -31 -51 -41
-58 -26 -19 -22 -33 6 -26 24 6 25 4 20 -38 -8 -75 -21 -139 -30 -148 -5 -5
-22 -10 -39 -12 -16 -2 -30 -9 -30 -16 0 -7 -13 -19 -30 -28 -27 -14 -31 -14
-41 1 -19 25 -58 15 -62 -15 -5 -36 -2 -103 4 -109 3 -3 14 0 24 7 11 7 28 12
39 12 12 0 21 9 25 24 6 24 31 40 47 31 5 -4 2 -16 -6 -29 -8 -12 -12 -26 -8
-29 3 -4 -1 -7 -10 -7 -9 0 -25 -10 -37 -22 -11 -12 -20 -16 -20 -10 0 7 -13
12 -29 12 -40 0 -90 -47 -85 -78 2 -14 -2 -25 -11 -28 -8 -4 -12 -11 -8 -17 4
-7 -6 -8 -30 -4 -25 4 -39 1 -48 -9 -6 -8 -17 -14 -24 -14 -7 0 -18 -7 -26
-16 -11 -13 -9 -14 13 -9 15 4 29 2 32 -4 11 -17 35 -13 69 13 18 14 45 28 62
32 16 4 36 13 43 21 7 7 23 15 35 17 47 9 125 27 197 46 68 18 109 20 471 20
373 0 398 1 420 19 l23 18 -32 17 c-17 9 -39 16 -50 16 -21 0 -98 35 -106 49
-4 5 -19 12 -35 16 -16 3 -55 31 -87 61 -54 52 -108 92 -160 120 -11 6 -29 8
-41 3 -16 -6 -23 -1 -36 27 -16 32 -30 40 -86 46 -24 3 -24 4 -7 20 16 17 15
21 -23 93 -47 87 -48 97 -21 132 11 14 20 36 20 49 0 15 6 24 15 24 13 0 55
75 55 99 0 5 13 23 29 38 32 31 43 63 24 70 -7 3 -13 0 -13 -6z m-260 -431 c0
-5 -4 -10 -10 -10 -5 0 -10 5 -10 10 0 6 5 10 10 10 6 0 10 -4 10 -10z m-315
-370 c11 -17 -5 -32 -21 -19 -7 6 -11 15 -8 20 7 12 21 11 29 -1z m-13 -112
c-9 -9 -15 -9 -24 0 -9 9 -7 12 12 12 19 0 21 -3 12 -12z"/>
<path d="M1876 5971 c-3 -5 1 -14 9 -21 12 -10 15 -10 15 3 0 19 -16 31 -24
18z"/>
<path d="M1725 5930 c-3 -6 1 -13 10 -16 19 -8 30 0 20 15 -8 14 -22 14 -30 1z"/>
<path d="M7863 5330 c4 -16 0 -20 -21 -20 -36 0 -16 -17 31 -25 39 -8 48 3 22
25 -9 7 -14 19 -11 27 3 7 -1 13 -10 13 -11 0 -15 -6 -11 -20z"/>
<path d="M8073 5332 c-8 -5 -8 -11 1 -24 15 -20 26 -14 26 14 0 19 -8 22 -27
10z"/>
<path d="M4315 5190 c-3 -5 3 -10 14 -10 12 0 21 5 21 10 0 6 -6 10 -14 10 -8
0 -18 -4 -21 -10z"/>
<path d="M4555 5065 c-16 -7 -57 -18 -89 -24 -32 -6 -66 -17 -75 -25 -9 -8
-37 -20 -63 -26 -57 -15 -85 -40 -45 -40 35 0 40 -13 22 -56 -19 -46 -19 -43
8 -54 18 -7 15 -8 -18 -7 -34 2 -40 -1 -41 -18 -1 -11 -2 -24 -4 -30 -1 -5 -1
-20 -1 -31 3 -28 -51 -68 -79 -59 -14 4 -22 1 -27 -12 -3 -10 -14 -28 -24 -40
-14 -19 -18 -20 -23 -8 -9 24 -34 17 -43 -11 -9 -26 -9 -26 -22 15 -8 29 -20
45 -37 51 -25 10 -31 24 -14 35 7 4 7 12 0 24 -5 10 -7 21 -3 24 3 4 -2 18
-11 32 -16 24 -16 25 8 25 13 0 29 7 36 15 11 13 8 15 -14 15 -14 0 -26 -4
-26 -9 0 -6 -15 -8 -32 -5 -85 13 -229 -123 -303 -286 -22 -47 -50 -101 -62
-120 -35 -54 -31 -150 7 -150 10 0 28 -13 40 -30 15 -21 30 -30 48 -30 26 0
88 -20 162 -53 45 -20 137 -40 148 -33 10 6 85 -40 122 -76 14 -13 50 -32 80
-42 74 -25 69 -23 119 -51 24 -14 53 -25 63 -25 10 0 35 -8 56 -19 24 -12 81
-23 162 -31 69 -7 134 -18 145 -23 48 -26 344 -57 550 -58 6 0 55 7 110 15 55
9 174 21 265 27 91 6 215 20 275 31 126 23 156 24 207 7 53 -17 87 -4 145 58
70 74 99 171 51 171 -13 0 -45 7 -73 16 -147 48 -176 56 -202 56 -16 0 -39 7
-51 16 -30 21 -106 11 -169 -23 -26 -13 -55 -22 -65 -20 -10 3 -32 -2 -49 -10
-22 -11 -45 -14 -82 -9 -29 4 -63 6 -77 5 -76 -5 -171 7 -181 23 -3 5 -17 4
-32 -3 -21 -10 -31 -9 -49 3 -29 19 -94 27 -133 17 -42 -13 -211 46 -280 97
-16 12 -47 25 -68 29 -25 5 -36 12 -33 20 6 18 -14 35 -41 35 -13 0 -38 10
-56 22 -18 13 -34 24 -36 25 -2 1 2 9 9 18 16 20 12 24 -29 27 -24 2 -36 9
-42 25 -5 13 -16 23 -25 23 -14 0 -15 7 -10 39 4 28 2 42 -9 51 -8 7 -15 17
-15 22 0 6 -14 28 -32 50 -26 34 -30 43 -20 59 15 23 16 49 2 49 -5 0 -10 -9
-10 -20 0 -21 -15 -27 -25 -10 -3 6 -1 10 4 10 6 0 10 3 9 8 -1 4 4 17 11 30
11 20 10 26 -5 43 -16 18 -15 20 10 53 14 19 26 41 26 48 1 21 21 41 78 77 28
18 52 37 52 42 0 13 -40 10 -75 -6z m-185 -119 c0 -3 -4 -8 -10 -11 -5 -3 -10
-1 -10 4 0 6 5 11 10 11 6 0 10 -2 10 -4z m-453 -173 c-4 -3 -2 -12 5 -20 14
-17 -6 -43 -22 -27 -12 12 -2 54 13 54 6 0 7 -3 4 -7z"/>
<path d="M1962 4970 c-16 -25 -16 -50 1 -50 16 1 50 48 42 60 -10 16 -29 12
-43 -10z"/>
<path d="M7654 4889 c-9 -10 -32 -23 -50 -29 -35 -12 -81 -64 -65 -74 13 -9
43 5 61 27 14 17 17 18 29 3 7 -9 17 -16 22 -16 9 0 144 99 138 101 -2 1 -30
2 -61 4 -45 2 -60 -1 -74 -16z"/>
<path d="M1942 4794 c4 -21 22 -23 26 -1 2 10 -3 17 -13 17 -10 0 -15 -6 -13
-16z"/>
<path d="M4011 4736 c-9 -10 -8 -16 4 -26 8 -7 15 -9 16 -4 0 5 2 17 4 27 4
20 -8 22 -24 3z"/>
<path d="M2032 4689 c2 -6 8 -10 13 -10 5 0 11 4 13 10 2 6 -4 11 -13 11 -9 0
-15 -5 -13 -11z"/>
<path d="M2798 4561 c-42 -3 -80 -9 -84 -13 -4 -4 -14 -2 -22 5 -12 9 -16 9
-19 0 -3 -8 -22 -13 -44 -13 -24 0 -38 -4 -34 -10 3 -5 -3 -10 -15 -10 -14 0
-19 4 -14 12 5 8 2 9 -10 5 -10 -4 -33 -7 -53 -7 -26 0 -34 -4 -30 -14 4 -10
-4 -17 -26 -21 -18 -4 -39 -13 -48 -21 -11 -10 -24 -11 -47 -5 -40 12 -46 3
-37 -55 5 -34 3 -44 -7 -42 -7 2 -24 -20 -38 -49 -24 -51 -50 -68 -65 -43 -10
16 -44 11 -54 -8 -6 -12 -4 -23 9 -39 l18 -23 16 25 c33 50 79 15 63 -47 -4
-12 -1 -28 5 -35 7 -9 7 -17 -2 -28 -11 -13 -8 -15 13 -15 14 0 29 -4 32 -10
11 -18 53 -11 83 15 28 23 194 85 230 85 9 0 23 9 30 21 11 17 20 20 46 15 23
-5 37 -2 46 9 7 9 29 15 54 15 22 0 61 7 85 16 25 8 72 17 105 19 34 2 90 14
126 25 36 12 94 24 128 27 46 4 65 10 70 22 3 9 15 24 27 33 20 16 20 17 -8
27 -16 6 -32 11 -35 11 -4 0 -15 9 -24 20 -10 11 -30 23 -45 26 -15 4 -44 15
-63 26 -19 10 -45 18 -58 18 -13 0 -33 5 -45 12 -12 6 -49 12 -82 13 -33 1
-69 4 -80 7 -11 3 -55 2 -97 -1z m-278 -61 c-19 -13 -30 -13 -30 0 0 6 10 10
23 10 18 0 19 -2 7 -10z"/>
<path d="M2045 4540 c-3 -5 1 -10 10 -10 9 0 13 5 10 10 -3 6 -8 10 -10 10 -2
0 -7 -4 -10 -10z"/>
<path d="M1955 4489 c-4 -6 -5 -13 -2 -16 7 -7 27 6 27 18 0 12 -17 12 -25 -2z"/>
<path d="M2240 4480 c0 -5 5 -10 10 -10 6 0 10 5 10 10 0 6 -4 10 -10 10 -5 0
-10 -4 -10 -10z"/>
<path d="M2100 4454 c0 -13 -7 -15 -36 -9 l-36 6 18 -30 c10 -16 22 -27 28
-24 33 20 74 58 70 65 -9 15 -44 8 -44 -8z"/>
<path d="M2046 4364 c-16 -11 -17 -17 -8 -26 9 -9 16 -8 29 5 23 23 5 41 -21
21z"/>
<path d="M2142 4329 c5 -17 48 -25 48 -10 0 6 -4 11 -9 11 -5 0 -17 3 -27 7
-12 4 -15 2 -12 -8z"/>
<path d="M2190 4140 c0 -11 5 -20 10 -20 6 0 10 9 10 20 0 11 -4 20 -10 20 -5
0 -10 -9 -10 -20z"/>
<path d="M1937 4143 c-9 -9 -9 -43 1 -43 18 1 34 19 29 34 -7 17 -19 21 -30 9z"/>
<path d="M2746 3955 c-25 -27 -58 -33 -116 -22 -49 10 -63 -1 -49 -41 6 -18
17 -32 23 -32 7 0 21 -9 32 -21 18 -20 91 -66 179 -114 133 -72 367 -185 383
-185 4 0 27 -9 50 -20 23 -11 77 -34 120 -50 42 -16 129 -48 192 -72 111 -43
241 -85 345 -113 28 -7 75 -20 105 -28 84 -23 123 -31 365 -83 39 -8 108 -24
155 -34 47 -11 130 -27 185 -35 55 -9 154 -24 220 -35 66 -10 149 -22 185 -25
36 -3 115 -12 175 -20 154 -21 568 -43 705 -39 122 4 230 17 320 39 30 7 82
16 115 19 62 7 239 60 265 80 20 16 51 29 130 57 68 23 90 36 90 50 0 19 -61
7 -126 -25 -38 -19 -85 -37 -104 -41 -19 -4 -53 -15 -75 -25 -22 -9 -69 -25
-105 -34 -36 -10 -79 -24 -97 -32 -22 -10 -73 -15 -160 -17 -143 -2 -166 0
-378 37 -146 26 -174 27 -455 24 -14 0 -81 3 -150 6 -372 17 -415 25 -725 141
-55 20 -136 43 -180 50 -44 8 -100 19 -125 25 -25 6 -73 14 -107 19 -34 5 -67
13 -75 17 -7 5 -29 9 -48 10 -40 2 -114 16 -210 40 -36 9 -77 16 -92 15 -16 0
-38 10 -51 23 -17 17 -31 22 -51 19 -36 -7 -65 19 -58 54 4 23 2 25 -17 20
-31 -8 -67 13 -93 54 -20 32 -24 34 -35 20 -11 -14 -12 -13 -13 6 0 12 -17 40
-37 63 -36 38 -40 40 -69 29 -29 -12 -32 -10 -85 43 -30 30 -67 58 -83 62 -17
4 -38 17 -48 28 -14 16 -21 18 -32 9 -22 -18 -96 -3 -96 20 0 15 5 17 30 13
22 -5 31 -2 36 10 4 9 5 19 3 21 -3 2 -34 6 -71 9 -37 3 -83 12 -104 21 -50
20 -61 19 -88 -10z m759 -425 c-3 -5 -10 -10 -16 -10 -5 0 -9 5 -9 10 0 6 7
10 16 10 8 0 12 -4 9 -10z"/>
<path d="M6700 3963 c-36 -5 -70 -28 -70 -48 0 -6 10 -21 23 -32 36 -33 201
-141 241 -158 20 -9 50 -28 66 -43 16 -15 49 -43 74 -62 24 -19 49 -44 55 -55
6 -11 29 -45 51 -75 22 -30 40 -61 40 -69 0 -25 48 -115 72 -137 26 -24 142
-43 153 -24 3 5 0 10 -8 10 -16 0 -30 24 -20 34 4 3 14 6 24 6 11 0 17 7 17
18 -1 9 2 35 6 57 6 34 3 47 -19 79 -14 20 -23 42 -19 47 11 18 -59 140 -88
155 -18 9 -28 23 -28 37 0 28 -32 107 -44 107 -5 0 -32 19 -60 43 -48 41 -85
56 -176 72 -19 4 -59 15 -88 26 -50 18 -116 22 -202 12z"/>
<path d="M2901 3581 c-10 -6 -9 -10 3 -14 8 -3 18 -2 21 3 8 13 -9 20 -24 11z"/>
<path d="M3110 3476 c0 -9 30 -14 35 -6 4 6 -3 10 -14 10 -12 0 -21 -2 -21 -4z"/>
<path d="M1645 3059 c-4 -6 -5 -13 -2 -16 7 -7 27 6 27 18 0 12 -17 12 -25 -2z"/>
<path d="M3184 3039 c-9 -16 20 -41 39 -33 27 10 21 44 -7 44 -14 0 -28 -5
-32 -11z"/>
<path d="M3300 2875 c-11 -13 -9 -15 15 -15 16 0 25 5 23 12 -7 19 -24 20 -38
3z"/>
<path d="M3250 2865 c-10 -13 -9 -15 8 -15 15 0 20 5 16 15 -4 8 -7 15 -9 15
-1 0 -8 -7 -15 -15z"/>
<path d="M3584 2508 c-10 -16 7 -26 46 -26 30 -1 43 4 50 19 10 18 7 19 -40
17 -29 -1 -54 -6 -56 -10z"/>
<path d="M3723 2443 c-18 -6 -16 -23 1 -23 17 0 30 16 19 23 -5 2 -14 2 -20 0z"/>
<path d="M2247 2396 c-3 -8 -3 -17 0 -20 9 -9 34 15 27 25 -8 13 -21 11 -27
-5z"/>
<path d="M2280 2286 c0 -8 5 -18 10 -21 13 -8 42 14 34 26 -9 15 -44 10 -44
-5z"/>
<path d="M2378 2256 c-20 -15 -14 -26 14 -26 11 0 18 7 18 20 0 23 -8 25 -32
6z"/>
<path d="M3630 2159 c0 -5 5 -7 10 -4 6 3 10 8 10 11 0 2 -4 4 -10 4 -5 0 -10
-5 -10 -11z"/>
<path d="M7478 2030 c-5 -32 1 -37 19 -19 11 11 6 49 -7 49 -4 0 -10 -13 -12
-30z"/>
<path d="M7571 2017 c-17 -17 -13 -41 9 -60 37 -31 52 -20 41 32 -7 35 -30 48
-50 28z"/>
<path d="M7542 1902 c-18 -18 -39 -32 -46 -32 -8 0 -21 -12 -31 -26 -13 -20
-15 -31 -7 -48 l11 -21 0 23 c1 12 6 22 11 22 17 0 23 -29 11 -44 -7 -8 -10
-20 -9 -27 2 -9 -4 -13 -14 -11 -22 4 -23 -6 -2 -29 26 -29 3 -59 -47 -59 -30
0 -38 -3 -32 -12 4 -7 8 -19 9 -26 2 -8 10 -22 20 -33 12 -14 21 -16 34 -9 13
7 20 6 23 -3 4 -9 6 -9 6 0 1 7 12 29 26 49 28 41 32 64 12 64 -8 0 -13 13
-13 35 0 41 19 42 24 2 7 -54 66 16 78 94 4 22 11 42 15 45 5 3 9 16 9 30 0
24 0 24 -20 4 -11 -11 -22 -31 -26 -44 -7 -30 -39 -60 -53 -51 -21 12 -11 50
20 76 20 16 30 32 28 44 -4 17 -8 15 -37 -13z"/>
<path d="M7332 1727 c-10 -11 -9 -17 3 -27 24 -20 45 4 24 26 -14 13 -17 13
-27 1z"/>
<path d="M7265 1719 c-11 -17 -15 -98 -6 -104 5 -2 18 6 30 19 16 17 22 33 19
57 -3 35 -29 51 -43 28z"/>
<path d="M7330 1585 c0 -29 15 -33 29 -6 11 20 5 31 -16 31 -7 0 -13 -11 -13
-25z"/>
<path d="M3202 1558 c-16 -16 -15 -28 3 -28 8 0 15 9 15 20 0 23 -2 24 -18 8z"/>
<path d="M6997 1313 c-4 -3 -7 -15 -7 -26 0 -13 -5 -17 -16 -13 -9 3 -14 1
-12 -5 2 -6 7 -10 11 -10 4 1 13 1 21 1 7 0 16 9 19 19 5 21 -6 45 -16 34z"/>
<path d="M3437 1294 c-3 -4 1 -13 9 -21 17 -18 29 -11 21 12 -7 16 -19 20 -30
9z"/>
<path d="M3572 1258 c3 -7 13 -15 22 -16 12 -3 17 1 14 10 -3 7 -13 15 -22 16
-12 3 -17 -1 -14 -10z"/>
<path d="M3700 1096 c0 -15 37 -32 47 -22 3 3 3 12 0 21 -8 19 -47 20 -47 1z"/>
<path d="M6710 1041 c0 -24 28 -35 47 -19 13 10 12 14 -3 25 -25 19 -44 16
-44 -6z"/>
<path d="M3870 970 c0 -5 9 -10 21 -10 11 0 17 5 14 10 -3 6 -13 10 -21 10 -8
0 -14 -4 -14 -10z"/>
<path d="M6630 960 c0 -5 5 -10 10 -10 6 0 10 5 10 10 0 6 -4 10 -10 10 -5 0
-10 -4 -10 -10z"/>
<path d="M5218 563 c6 -2 18 -2 25 0 6 3 1 5 -13 5 -14 0 -19 -2 -12 -5z"/>
</g>
</svg>
