<?xml version="1.0" standalone="no"?>
<!DOCTYPE svg PUBLIC "-//W3C//DTD SVG 20010904//EN"
 "http://www.w3.org/TR/2001/REC-SVG-20010904/DTD/svg10.dtd">
<svg version="1.0" xmlns="http://www.w3.org/2000/svg"
 width="233.000000pt" height="192.000000pt" viewBox="0 0 233.000000 192.000000"
 preserveAspectRatio="xMidYMid meet">
<metadata>
Created by potrace 1.16, written by Peter Selinger 2001-2019
</metadata>
<g transform="translate(0.000000,192.000000) scale(0.100000,-0.100000)"
fill="#000000" stroke="none">
<path d="M1118 1903 c6 -2 18 -2 25 0 6 3 1 5 -13 5 -14 0 -19 -2 -12 -5z"/>
<path d="M950 1880 l-25 -8 28 -1 c15 -1 27 4 27 9 0 6 -1 10 -2 9 -2 -1 -14
-5 -28 -9z"/>
<path d="M161 1826 c-9 -11 -10 -33 -1 -92 5 -43 12 -80 15 -82 2 -3 16 3 30
12 22 15 24 21 19 59 -16 109 -34 138 -63 103z"/>
<path d="M820 1830 c-12 -8 -11 -10 7 -10 12 0 25 5 28 10 8 13 -15 13 -35 0z"/>
<path d="M759 1794 c-90 -57 -239 -224 -239 -267 0 -27 -47 -60 -79 -55 -17 2
-32 0 -34 -5 -4 -12 -63 18 -74 37 -4 7 -30 38 -56 69 l-48 55 -85 -5 c-79 -5
-87 -3 -110 18 -13 12 -24 17 -24 10 0 -21 51 -61 94 -72 157 -43 204 -69 257
-142 30 -41 40 -111 20 -132 -18 -20 -63 -141 -92 -249 -50 -186 -51 -406 -1
-501 27 -54 203 -255 276 -316 102 -87 185 -132 321 -175 115 -36 127 -38 300
-44 195 -6 242 0 335 43 135 61 262 179 346 320 39 67 38 63 21 70 -8 3 -14
-4 -15 -16 0 -12 -6 -23 -12 -25 -5 -2 -8 -8 -4 -13 3 -5 -8 -9 -25 -9 -20 0
-32 -6 -36 -19 -3 -11 -12 -22 -20 -25 -8 -3 -12 -14 -10 -26 2 -11 -1 -20 -6
-20 -6 0 -32 -22 -58 -48 -67 -67 -196 -141 -260 -149 -38 -4 -51 -2 -51 7 0
9 -3 10 -13 1 -10 -8 -23 -6 -52 9 -21 11 -42 17 -48 13 -5 -3 -13 0 -17 7 -5
7 -27 12 -54 12 -28 -1 -51 4 -61 14 -9 9 -23 13 -34 9 -11 -3 -22 -1 -26 5
-4 6 -15 8 -26 5 -11 -4 -19 -2 -19 4 0 6 -11 11 -25 11 -14 0 -25 3 -25 8 0
4 -23 22 -50 40 -28 18 -50 36 -50 41 0 4 -12 14 -27 22 -84 42 -116 75 -100
101 6 9 14 13 17 8 4 -6 16 -1 28 10 12 12 22 17 22 13 0 -4 7 3 16 16 11 15
23 21 35 18 11 -3 22 -1 25 4 3 5 0 9 -5 9 -6 0 -11 7 -11 15 0 8 5 15 10 15
6 0 10 5 10 11 0 5 -3 8 -7 6 -5 -3 -14 1 -21 9 -11 12 -10 14 3 14 9 0 13 5
10 10 -4 6 -10 8 -14 6 -4 -3 -7 9 -6 26 1 22 -3 32 -17 36 -10 2 -18 8 -18
13 0 5 -11 9 -25 9 -14 0 -25 4 -25 10 0 5 5 9 12 7 6 -1 14 6 16 15 2 12 -1
16 -11 12 -18 -6 -27 16 -21 51 4 21 1 25 -13 23 -11 -2 -17 2 -15 10 6 33
-24 95 -62 128 -21 19 -41 32 -43 31 -1 -2 -5 -29 -8 -60 -3 -31 -12 -69 -20
-84 -13 -25 -13 -29 3 -35 14 -5 14 -7 1 -7 -21 -1 -39 18 -32 35 3 8 -1 14
-7 14 -10 0 -12 20 -7 83 3 45 9 91 13 102 7 17 5 18 -8 8 -40 -33 -51 -164
-23 -280 35 -150 49 -199 57 -210 16 -20 -7 -22 -38 -2 -17 10 -37 31 -45 46
-8 16 -20 34 -26 41 -7 7 -13 18 -13 23 0 6 -4 8 -10 4 -11 -7 -43 52 -35 65
3 6 1 10 -4 10 -6 0 -11 5 -11 10 0 6 -9 20 -20 32 -16 18 -20 36 -20 95 0 56
3 73 14 73 8 0 17 7 20 16 3 8 2 12 -4 9 -6 -3 -7 1 -4 9 3 9 10 16 14 16 13
0 36 52 35 80 0 14 4 28 8 31 5 3 3 12 -5 20 -14 15 -17 67 -5 87 5 6 6 16 2
21 -3 5 2 17 11 25 8 9 11 16 5 16 -18 0 -12 25 10 49 15 16 18 25 10 30 -8 5
-6 13 7 25 44 39 142 42 192 6 33 -23 113 -55 161 -64 45 -8 170 9 179 25 4 6
12 9 18 5 17 -10 23 10 8 24 -14 11 -18 50 -6 50 16 0 30 -27 30 -57 0 -18 4
-33 10 -33 5 0 32 12 59 27 38 22 50 35 54 57 6 40 -3 76 -18 76 -8 0 -22 18
-31 40 -11 25 -23 39 -31 36 -7 -3 -13 -1 -13 4 0 5 -8 9 -17 9 -10 -1 -60 2
-112 5 -71 4 -101 2 -123 -9 -26 -13 -33 -12 -65 6 -29 16 -38 18 -45 7 -8
-10 -9 -10 -6 2 12 44 154 59 277 28 90 -22 130 -13 131 28 0 12 -42 34 -80
40 -24 5 -46 11 -123 34 -18 6 -41 10 -49 10 -9 0 -19 6 -22 13 -5 9 -7 9 -12
-1 -3 -6 -9 -10 -13 -7 -8 4 -42 -4 -86 -20 -17 -7 -16 -4 5 16 21 21 22 24 7
27 -22 4 -21 11 1 29 16 14 16 14 -1 9 -15 -5 -16 -3 -7 15 18 33 7 38 -31 13z
m201 -314 c43 -12 114 -69 88 -70 -10 0 -18 4 -18 8 0 21 -84 46 -142 44 -61
-3 -72 3 -35 18 30 12 65 12 107 0z m-8 -60 c47 -14 98 -56 98 -82 0 -14 -5
-18 -16 -14 -9 3 -27 6 -40 6 -17 0 -24 6 -24 20 0 28 -35 60 -65 60 -14 0
-37 -11 -51 -25 -26 -27 -49 -32 -59 -14 -9 13 20 36 60 48 41 12 54 13 97 1z
m-7 -60 c3 -5 1 -10 -4 -10 -6 0 -11 5 -11 10 0 6 2 10 4 10 3 0 8 -4 11 -10z
m-231 -935 c3 -9 0 -15 -9 -15 -9 0 -12 6 -9 15 4 8 7 15 9 15 2 0 5 -7 9 -15z"/>
<path d="M1473 1553 c-36 -5 -49 -26 -27 -47 11 -12 12 -20 4 -36 -6 -11 -17
-20 -24 -20 -27 0 -34 -58 -13 -103 6 -15 18 -25 25 -22 40 16 46 16 24 1 -12
-10 -19 -22 -16 -28 4 -6 1 -14 -7 -19 -21 -13 34 -50 120 -81 80 -28 111 -34
111 -19 0 5 -18 11 -39 15 -64 10 -55 21 17 21 101 -2 121 16 85 73 -21 32
-34 43 -45 36 -4 -3 -8 -1 -8 4 0 6 -11 13 -25 16 -36 9 -32 29 5 24 20 -3 31
0 35 11 9 23 -27 48 -96 67 -33 9 -62 20 -64 24 -4 7 18 3 115 -19 46 -10 130
-48 152 -68 17 -15 18 -15 18 6 0 30 -32 76 -88 128 -37 35 -48 40 -64 32 -18
-10 -74 -8 -138 4 -14 2 -39 2 -57 0z m117 -182 c0 -11 -59 -20 -66 -10 -2 4
8 10 23 12 16 2 31 5 36 6 4 0 7 -3 7 -8z m70 -61 c20 -11 65 -59 59 -64 -2
-3 -25 -7 -51 -10 -41 -5 -45 -3 -41 13 7 27 -31 61 -67 61 -20 0 -39 -9 -54
-25 -23 -25 -46 -33 -46 -16 0 14 26 32 67 47 37 13 102 10 133 -6z"/>
<path d="M2200 1496 c-6 -9 -10 -21 -8 -28 3 -8 9 -4 17 10 15 28 9 39 -9 18z"/>
<path d="M2108 1458 c-12 -18 -31 -41 -40 -50 -10 -10 -18 -31 -18 -46 0 -32
-16 -52 -41 -52 -10 0 -19 -11 -22 -30 -5 -23 -17 -34 -53 -52 -26 -12 -42
-24 -36 -26 7 -2 28 6 47 18 55 34 131 50 240 50 l100 1 -40 22 c-86 48 -113
69 -125 97 -11 26 -9 34 9 65 26 44 10 46 -21 3z"/>
<path d="M1094 1252 c-6 -4 -16 -23 -23 -43 -17 -51 -71 -65 -71 -18 0 42 -60
9 -90 -51 -11 -22 -20 -46 -20 -53 0 -14 56 -47 80 -47 6 0 39 -13 73 -30 95
-45 224 -64 345 -50 53 7 113 12 132 13 36 0 70 21 70 43 0 20 -99 45 -124 32
-34 -18 -189 -2 -244 26 -83 42 -121 111 -92 167 9 15 7 19 -7 19 -10 0 -23
-4 -29 -8z"/>
<path d="M623 1128 c-43 -11 -60 -36 -54 -83 4 -29 6 -29 53 -8 24 12 63 24
88 28 72 11 121 27 117 39 -10 30 -122 43 -204 24z"/>
<path d="M673 983 c-34 -6 -28 -19 21 -48 177 -104 524 -186 774 -184 153 1
90 17 -108 28 -107 6 -167 14 -195 25 -22 9 -91 28 -154 41 -90 19 -120 30
-142 51 -29 28 -50 41 -114 74 -41 20 -44 20 -82 13z"/>
<path d="M1666 982 c-3 -6 11 -20 31 -33 55 -33 83 -59 104 -101 21 -42 44
-49 54 -17 8 24 -37 119 -65 137 -26 16 -116 27 -124 14z"/>
<path d="M1700 800 c-8 -5 -10 -10 -5 -10 6 0 17 5 25 10 8 5 11 10 5 10 -5 0
-17 -5 -25 -10z"/>
<path d="M1630 774 l-35 -14 35 6 c19 3 39 10 45 15 13 13 -3 10 -45 -7z"/>
<path d="M860 449 c0 -5 5 -7 10 -4 6 3 10 8 10 11 0 2 -4 4 -10 4 -5 0 -10
-5 -10 -11z"/>
<path d="M1820 419 c0 -5 5 -7 10 -4 6 3 10 8 10 11 0 2 -4 4 -10 4 -5 0 -10
-5 -10 -11z"/>
</g>
</svg>
